# xmcd CD database file
#
# Track frame offsets:
#	150
#	20034
#	42870
#	56892
#	70465
#	85972
#	106241
#	126857
#	144937
#	164744
#	186192
#	203634
#	230665
#
# Disc length: 3261 seconds
#
# Revision: 0
# Processed by: cddbd v1.5.2PL0 Copyright (c) Steve Scherf et al.
# Submitted via: CDex 1.70beta2
#
DISCID=bf0cbb0d
DTITLE=むらなが吟 - 吟の星
DYEAR=1900
DGENRE=Blues
TTITLE0=北帰行（旅順高等学校寮歌）
TTITLE1=浜辺の歌
TTITLE2=シャボン玉
TTITLE3=赤とんぼ
TTITLE4=旅愁
TTITLE5=早春賦
TTITLE6=夕焼け小焼け
TTITLE7=トワイライトブルース
TTITLE8=友と故郷
TTITLE9=琵琶湖周航の歌
TTITLE10=ふるさと
TTITLE11=蛍の光
TTITLE12=おにぎり
EXTD=
EXTT0=
EXTT1=
EXTT2=
EXTT3=
EXTT4=
EXTT5=
EXTT6=
EXTT7=
EXTT8=
EXTT9=
EXTT10=
EXTT11=
EXTT12=
PLAYORDER=
